<svg xmlns="http://www.w3.org/2000/svg" viewBox="0 0 91.3 91.3"><defs><style>.cls-1{fill:#faa400;}.cls-2{fill:none;stroke:#faa400;stroke-miterlimit:10;stroke-width:4px;}</style></defs><title>Asset 1</title><g id="Layer_2" data-name="Layer 2"><g id="Layer_1-2" data-name="Layer 1"><path class="cls-1" d="M69.34,37.88H63.52l-1.61-4A10.81,10.81,0,0,0,51.81,27H39.49a10.81,10.81,0,0,0-10.1,6.84l-1.62,4H22a1.17,1.17,0,0,0-1.13,1.45l.59,2.33a1.16,1.16,0,0,0,1.13.88h1.94a6.19,6.19,0,0,0-2.14,4.66v4.66a6.17,6.17,0,0,0,1.55,4.07v5.25A3.11,3.11,0,0,0,27,64.29h3.11a3.1,3.1,0,0,0,3.1-3.11v-3.1H58.08v3.1a3.1,3.1,0,0,0,3.1,3.11h3.11a3.11,3.11,0,0,0,3.11-3.11V55.93A6.17,6.17,0,0,0,69,51.86V47.2a6.19,6.19,0,0,0-2.14-4.66h1.94a1.15,1.15,0,0,0,1.13-.88l.59-2.33a1.17,1.17,0,0,0-1.13-1.45ZM35.16,36.15a4.66,4.66,0,0,1,4.33-2.93H51.81a4.66,4.66,0,0,1,4.33,2.93L58.08,41H33.22Zm-5,15.69a3.1,3.1,0,1,1,0-6.19c1.86,0,4.66,2.79,4.66,4.65s-2.8,1.54-4.66,1.54Zm31.06,0c-1.86,0-4.66.31-4.66-1.54s2.8-4.65,4.66-4.65a3.1,3.1,0,1,1,0,6.19Z"/><circle class="cls-2" cx="45.65" cy="45.65" r="43.65"/></g></g></svg>