<svg xmlns="http://www.w3.org/2000/svg" viewBox="0 0 91.3 91.3"><defs><style>.cls-1{fill:none;stroke:#d50c00;stroke-miterlimit:10;stroke-width:4px;}.cls-2{fill:#d50c00;}</style></defs><title>Asset 6</title><g id="Layer_2" data-name="Layer 2"><g id="Layer_1-2" data-name="Layer 1"><circle class="cls-1" cx="45.65" cy="45.65" r="43.65"/><path class="cls-2" d="M70.43,56.63A4.23,4.23,0,0,1,66.77,63H24.53a4.22,4.22,0,0,1-3.66-6.33L42,20a4.22,4.22,0,0,1,7.32,0L70.43,56.63ZM45.65,49.05A4,4,0,1,0,49.7,53.1,4.05,4.05,0,0,0,45.65,49.05ZM41.81,34.5l.65,12a1.05,1.05,0,0,0,1,1h4.28a1.05,1.05,0,0,0,1.05-1l.65-12a1,1,0,0,0-1.05-1.11H42.86a1,1,0,0,0-1,1.11Z"/></g></g></svg>