<svg xmlns="http://www.w3.org/2000/svg" viewBox="0 0 91.3 91.3"><defs><style>.cls-1{fill:none;stroke:#00a5ac;stroke-miterlimit:10;stroke-width:4px;}.cls-2{fill:#00a5ac;}</style></defs><title>Asset 4</title><g id="Layer_2" data-name="Layer 2"><g id="Layer_1-2" data-name="Layer 1"><circle class="cls-1" cx="45.65" cy="45.65" r="43.65"/><path class="cls-2" d="M50.82,28.4a5.18,5.18,0,1,0-5.18-5.18A5.18,5.18,0,0,0,50.82,28.4ZM61,44.47,58.5,43.2l-1-3.17a11.74,11.74,0,0,0-11-8.18c-3.88,0-6,1.08-10.06,2.71a10.3,10.3,0,0,0-5.36,5L30.29,41a3.47,3.47,0,0,0,1.53,4.63,3.4,3.4,0,0,0,4.58-1.55l.73-1.46A3.36,3.36,0,0,1,38.91,41L41.8,39.8l-1.64,6.55a6.94,6.94,0,0,0,1.6,6.34l6.46,7.05a6.89,6.89,0,0,1,1.61,3l2,7.91A3.45,3.45,0,0,0,58.5,69l-2.4-9.6a7,7,0,0,0-1.6-3L49.59,51l1.86-7.41L52,45.39a6.89,6.89,0,0,0,3.42,4L58,50.65a3.41,3.41,0,0,0,4.58-1.54A3.49,3.49,0,0,0,61,44.47ZM36.33,59.64A6.8,6.8,0,0,1,34.8,62l-5.39,5.4a3.45,3.45,0,1,0,4.87,4.89l6.4-6.41a7,7,0,0,0,1.54-2.32l1.45-3.64c-6-6.5-4.17-4.51-5.11-5.79Z"/></g></g></svg>