<svg xmlns="http://www.w3.org/2000/svg" viewBox="0 0 91.3 91.3"><defs><style>.cls-1{fill:none;stroke:#39b600;stroke-miterlimit:10;stroke-width:4px;}.cls-2{fill:#39b600;}</style></defs><title>Asset 5</title><g id="Layer_2" data-name="Layer 2"><g id="Layer_1-2" data-name="Layer 1"><circle class="cls-1" cx="45.65" cy="45.65" r="43.65"/><path class="cls-2" d="M22.06,23.45a4.17,4.17,0,0,0-4.16,4.16v5.55a1.39,1.39,0,0,0,1.39,1.39h6.94V27.61A4.17,4.17,0,0,0,22.06,23.45Zm18,35.78V54h25V31.78a8.34,8.34,0,0,0-8.33-8.33H27.58A6.87,6.87,0,0,1,29,27.61V59.53A5.55,5.55,0,0,0,35.48,65,5.76,5.76,0,0,0,40.1,59.23Zm2.78-2.48v2.78a8.33,8.33,0,0,1-8.33,8.32H63.69a9.71,9.71,0,0,0,9.71-9.71A1.39,1.39,0,0,0,72,56.75Z"/></g></g></svg>