<svg xmlns="http://www.w3.org/2000/svg" viewBox="0 0 91.3 91.3"><defs><style>.cls-1{fill:none;stroke:#1d5866;stroke-miterlimit:10;stroke-width:4px;}.cls-2{fill:#1d5866;}</style></defs><title>Asset 2</title><g id="Layer_2" data-name="Layer 2"><g id="Layer_1-2" data-name="Layer 1"><circle class="cls-1" cx="45.65" cy="45.65" r="43.65"/><path class="cls-2" d="M62.5,40.06a11.06,11.06,0,0,0-3.71.6l-2.87-4.79h7.2a2.09,2.09,0,0,0,2.09-2.1V31a2.08,2.08,0,0,0-2.09-2.1h-4a2.11,2.11,0,0,0-1.56.69l-3.27,3.64-2-3.32a2.12,2.12,0,0,0-1.8-1h-7a1.4,1.4,0,0,0-1.4,1.4v1.39a1.4,1.4,0,0,0,1.4,1.4h5.8L51,35.87H37.6c-1.54-2-3.92-3.5-8.72-3.5H24a2.12,2.12,0,0,0-2.14,2.14A2.1,2.1,0,0,0,24,36.57h4.89a4.61,4.61,0,0,1,4.17,2.16l-1,1.79a11,11,0,0,0-3.6-.45A11.18,11.18,0,1,0,39.71,54h7.35a2.1,2.1,0,0,0,2.1-2.2,13.26,13.26,0,0,1,4.91-10.92l1.09,1.82a11.19,11.19,0,1,0,7.34-2.68ZM28.88,58.23a7,7,0,1,1,0-14,6.68,6.68,0,0,1,1.09.09l-3.63,6.59A2.1,2.1,0,0,0,28.18,54h7.1A7,7,0,0,1,28.88,58.23ZM69.4,51.62a7,7,0,0,1-14-.38,6.91,6.91,0,0,1,1.93-4.81l4.32,7.19a1.4,1.4,0,0,0,1.92.49l1.19-.72a1.39,1.39,0,0,0,.48-1.92L61,44.4a6.43,6.43,0,0,1,1.39-.14,7,7,0,0,1,7,7.36Z"/></g></g></svg>